# xmcd
#
# Track frame offsets:
#	150
#	11326
#	24167
#	34473
#	46234
#	57649
#	71021
#	80663
#	92588
#	105530
#	118581
#	130881
#	144424
#	154933
#	165997
#	178849
#	192599
#	205124
#	216517
#	229346
#	241957
#	254448
#	267279
#	280465
#
# Disc length: 3902 seconds
#
# Revision: 1
# Processed by: cddbd v1.5.1PL2 Copyright (c) Steve Scherf et al.
# Submitted via: audiograbber 1.83.01
#
DISCID=620f3c18
DTITLE=Various Artist - Hillbilly Bop, Boogie and the Honky Tonk Blues, v.1 - di
DTITLE=sc 1
DYEAR=1900
DGENRE=Country
TTITLE0=Redd Stewart - Brother, Drop Dead
TTITLE1=Paul Howard and his Cotton Pickers - Rootie Tootie
TTITLE2=Sam Nichols and the Melody Rangers - Keep Your Motor Hot
TTITLE3=Al Dexter - Diddy Wah Boogie
TTITLE4=Wally Fowler and his Georgia Clodhoppers - Mountain Boogie
TTITLE5=Curley Williams and his Georgia Peach Pickers - Georgia Boogie
TTITLE6=Buchanan Brothers - Hootin-Nanny Papa
TTITLE7=Bud Hobbs and his Trail Herders - Lazy Mary
TTITLE8=Roy Hogshed - Easy Payment Blues
TTITLE9=Jesse Rogers and his '49ers - Mind Your Own Business
TTITLE10=Grandpa Jones - Grandpa's Boogie
TTITLE11=Paul Howard and his Cotton Pickers - Cotton Picker's Special
TTITLE12=Louie Innes - Jug Band Boogie
TTITLE13=Cecil Campbell's Tennessee Ramblers - Spookie Boogie
TTITLE14=Esmereldy - (I Had) A Good Man In Memphis
TTITLE15=Claude Casey - Juke Box Gal
TTITLE16=Spade Cooley - Big Chief Boogie
TTITLE17=Eddie Crosby and his Sugarfoot Shufflers - Sugarfoot Boogie
TTITLE18=Jimmie Osborne - What a Price To Pay For Love
TTITLE19=Art Gibson and his Mountain Melody Men - Everybody's Sweetheart
TTITLE20=Jerry Irby - 49 Women
TTITLE21=Lonnie Glosson - It'll Make a Change In Business
TTITLE22=Louis Innes - Better Back Up Mama
TTITLE23=Jesse Rogers and his '49ers - Hadacol Boogie
EXTD=
EXTT0=
EXTT1=
EXTT2=
EXTT3=
EXTT4=
EXTT5=
EXTT6=
EXTT7=
EXTT8=
EXTT9=
EXTT10=
EXTT11=
EXTT12=
EXTT13=
EXTT14=
EXTT15=
EXTT16=
EXTT17=
EXTT18=
EXTT19=
EXTT20=
EXTT21=
EXTT22=
EXTT23=
PLAYORDER=
